<svg width="34" height="35" viewBox="0 0 34 35" fill="none" xmlns="http://www.w3.org/2000/svg">
<g id="emojione-v1:ballot-box-bold-check">
<path id="Vector" d="M25.6807 5.18774H3.10412C2.28156 5.18831 1.49286 5.51539 0.911322 6.09713C0.329781 6.67887 0.00296696 7.46768 0.00268555 8.29024V30.8673C0.0028264 31.6898 0.329629 32.4786 0.911231 33.0602C1.49283 33.6418 2.28161 33.9686 3.10412 33.9687H25.6807C26.5033 33.9686 27.2921 33.6417 27.8737 33.06C28.4554 32.4783 28.7821 31.6894 28.7821 30.8668V8.29024C28.782 7.46764 28.4552 6.67875 27.8736 6.09698C27.292 5.51521 26.5033 5.18817 25.6807 5.18774ZM27.1257 29.3384C27.1258 29.6988 27.0549 30.0558 26.9171 30.3888C26.7793 30.7219 26.5772 31.0245 26.3224 31.2795C26.0676 31.5344 25.7651 31.7367 25.4321 31.8747C25.0991 32.0127 24.7422 32.0838 24.3817 32.0839H4.40569C4.0451 32.084 3.68803 32.0131 3.35486 31.8752C3.0217 31.7372 2.71898 31.535 2.46401 31.28C2.20904 31.0251 2.00681 30.7224 1.86889 30.3892C1.73097 30.056 1.66005 29.699 1.66019 29.3384V9.36284C1.66019 9.00232 1.7312 8.64533 1.86918 8.31226C2.00717 7.97919 2.20941 7.67656 2.46436 7.42166C2.71931 7.16676 3.02197 6.96458 3.35507 6.82666C3.68816 6.68875 4.04517 6.6178 4.40569 6.61787H24.3817C25.1095 6.61829 25.8074 6.90766 26.3219 7.42238C26.8364 7.9371 27.1255 8.63505 27.1257 9.36284V29.3384Z" fill="white"/>
<path id="Vector_2" d="M29.7818 2.43641C25.6907 5.97879 21.9374 9.73685 18.7674 14.1345C17.3692 16.0747 16.27 18.2299 15.2542 20.3858C14.7767 21.4004 14.4914 22.456 14.2231 23.5116C12.2718 21.6979 10.3726 19.8327 8.23059 18.2204C6.70325 17.0713 1.57669 20.6748 3.367 22.0231C6.57575 24.4371 9.24794 27.4423 12.3664 29.9637C13.6722 31.0171 16.5659 28.7306 17.2438 27.7696C19.4756 24.6087 19.7805 20.7417 21.4077 17.2923C23.8918 12.0175 28.2964 7.68729 32.6437 3.92072C35.8896 1.11147 31.9679 0.543568 29.7829 2.43429" fill="#4CB050"/>
</g>
</svg>
